<svg xmlns="http://www.w3.org/2000/svg" width="881" height="490" viewBox="0 0 352 196" font-family="Arial, sans-serif">
  <defs>
    <marker id="ah" viewBox="0 0 8 6" refX="8" refY="3"
      markerWidth="4" markerHeight="3" orient="auto">
      <path d="M0.5,0.5 L7,3 L0.5,5.5" fill="none" stroke="#94A3B8"
        stroke-width="1.2" stroke-linejoin="round" stroke-linecap="round"/>
    </marker>
    <filter id="shadow" x="-6%" y="-8%" width="112%" height="128%">
      <feDropShadow dx="0" dy="0.5" stdDeviation="0.8"
        flood-color="#000" flood-opacity="0.05"/>
    </filter>
  </defs>
  <rect width="352" height="196" fill="#F8F9FB" rx="3"/>
  <text x="176" y="11" text-anchor="middle" font-size="6" font-weight="700" fill="#1E293B">PredictSwap Architecture</text>
  <rect x="101" y="16" width="150" height="10" rx="3" fill="#fff" stroke="#E2E5EA" stroke-width="0.4"/>
  <rect x="106" y="18.5" width="5" height="5" rx="2.5" fill="#fff" stroke="#E2E5EA" stroke-width="0.4"/>
  <text x="114" y="22.5" font-size="3.5" fill="#1E293B">Actor</text>
  <rect x="146" y="18.5" width="5" height="5" rx="1.5" fill="#fff" stroke="#E2E5EA" stroke-width="0.4"/>
  <rect x="147" y="19.5" width="0.8" height="3" rx="0.4" fill="#3B82F6"/>
  <text x="154" y="22.5" font-size="3.5" fill="#1E293B">Protocol</text>
  <rect x="194" y="18.5" width="5" height="5" rx="1.5" fill="#fff" stroke="#E2E5EA" stroke-width="0.4"/>
  <rect x="195" y="19.5" width="0.8" height="3" rx="0.4" fill="#F59E0B"/>
  <text x="202" y="22.5" font-size="3.5" fill="#1E293B">External</text>
  <rect x="20.0" y="84.0" width="312.4" height="40.0" rx="5" fill="#EDEEF2"/>
  <text x="329.4" y="89.0" text-anchor="end" font-size="3.5" fill="#94A3B8" font-weight="500">Core Protocol</text>
  <rect x="20.0" y="146.0" width="312.4" height="40.0" rx="5" fill="#EDEEF2"/>
  <text x="329.4" y="151.0" text-anchor="end" font-size="3.5" fill="#94A3B8" font-weight="500">Dependencies</text>
  <path d="M91.3,46.0 C91.3,70.0 119.7,70.0 119.7,94.0" fill="none" stroke="#94A3B8" stroke-width="0.5" marker-end="url(#ah)"/>
  <path d="M182.0,46.0 C182.0,70.0 211.2,70.0 211.2,94.0" fill="none" stroke="#94A3B8" stroke-width="0.5" marker-end="url(#ah)"/>
  <path d="M261.2,46.0 C261.2,70.0 211.2,70.0 211.2,94.0" fill="none" stroke="#94A3B8" stroke-width="0.5" marker-end="url(#ah)"/>
  <path d="M174.8,112.0 C167.3,126.0 157.2,126.0 149.7,114.0" fill="none" stroke="#94A3B8" stroke-width="0.5" marker-end="url(#ah)"/>
  <path d="M119.7,114.0 C119.7,135.0 285.4,135.0 285.4,156.0" fill="none" stroke="#94A3B8" stroke-width="0.5" marker-end="url(#ah)"/>
  <path d="M119.7,114.0 C119.7,135.0 68.8,135.0 68.8,156.0" fill="none" stroke="#94A3B8" stroke-width="0.5" marker-end="url(#ah)"/>
  <path d="M119.7,114.0 C119.7,135.0 178.0,135.0 178.0,156.0" fill="none" stroke="#94A3B8" stroke-width="0.5" marker-end="url(#ah)"/>
  <path d="M211.2,114.0 C211.2,135.0 285.4,135.0 285.4,156.0" fill="none" stroke="#94A3B8" stroke-width="0.5" marker-end="url(#ah)"/>
  <g filter="url(#shadow)">
    <rect x="61.5" y="32.0" width="59.6" height="14" rx="7" fill="#fff" stroke="#E2E5EA" stroke-width="0.5"/>
    <text x="91.3" y="40.8" text-anchor="middle" font-size="4.8" font-weight="600" fill="#1E293B">User</text>
  </g>
  <g filter="url(#shadow)">
    <rect x="152.8" y="32.0" width="58.4" height="14" rx="7" fill="#fff" stroke="#E2E5EA" stroke-width="0.5"/>
    <text x="182.0" y="40.8" text-anchor="middle" font-size="4.8" font-weight="600" fill="#1E293B">Operator</text>
  </g>
  <g filter="url(#shadow)">
    <rect x="233.2" y="32.0" width="56.0" height="14" rx="7" fill="#fff" stroke="#E2E5EA" stroke-width="0.5"/>
    <text x="261.2" y="40.8" text-anchor="middle" font-size="4.8" font-weight="600" fill="#1E293B">Owner</text>
  </g>
  <g filter="url(#shadow)">
    <rect x="174.8" y="94.0" width="72.8" height="20" rx="3" fill="#fff" stroke="#E2E5EA" stroke-width="0.5"/>
    <rect x="177.8" y="97.0" width="1.4" height="14" rx="0.6" fill="#3B82F6"/>
    <text x="211.2" y="103.5" text-anchor="middle" font-size="4.8" font-weight="600" fill="#1E293B">PoolFactory</text>
    <text x="211.2" y="108.5" text-anchor="middle" font-size="3.5" fill="#64748B">Registry</text>
  </g>
  <g filter="url(#shadow)">
    <rect x="89.7" y="94.0" width="60.0" height="20" rx="3" fill="#fff" stroke="#E2E5EA" stroke-width="0.5"/>
    <rect x="92.7" y="97.0" width="1.4" height="14" rx="0.6" fill="#3B82F6"/>
    <text x="119.7" y="103.5" text-anchor="middle" font-size="4.8" font-weight="600" fill="#1E293B">SwapPool</text>
    <text x="119.7" y="108.5" text-anchor="middle" font-size="3.5" fill="#64748B">1:1 AMM</text>
  </g>
  <g filter="url(#shadow)">
    <rect x="248.4" y="156.0" width="74.0" height="20" rx="3" fill="#fff" stroke="#E2E5EA" stroke-width="0.5"/>
    <rect x="251.4" y="159.0" width="1.4" height="14" rx="0.6" fill="#3B82F6"/>
    <text x="285.4" y="165.5" text-anchor="middle" font-size="4.8" font-weight="600" fill="#1E293B">LPToken</text>
    <text x="285.4" y="170.5" text-anchor="middle" font-size="3.5" fill="#64748B">A + B instances</text>
  </g>
  <g filter="url(#shadow)">
    <rect x="30.0" y="156.0" width="77.6" height="20" rx="3" fill="#fff" stroke="#E2E5EA" stroke-width="0.5"/>
    <rect x="33.0" y="159.0" width="1.4" height="14" rx="0.6" fill="#3B82F6"/>
    <text x="68.8" y="165.5" text-anchor="middle" font-size="4.8" font-weight="600" fill="#1E293B">FeeCollector</text>
    <text x="68.8" y="170.5" text-anchor="middle" font-size="3.5" fill="#64748B">Fee Sink</text>
  </g>
  <g filter="url(#shadow)">
    <rect x="129.6" y="156.0" width="96.8" height="20" rx="3" fill="#fff" stroke="#E2E5EA" stroke-width="0.5"/>
    <rect x="132.6" y="159.0" width="1.4" height="14" rx="0.6" fill="#F59E0B"/>
    <text x="178.0" y="165.5" text-anchor="middle" font-size="4.8" font-weight="600" fill="#1E293B">ERC-1155 Markets</text>
    <text x="178.0" y="170.5" text-anchor="middle" font-size="3.5" fill="#64748B">MarketA / MarketB</text>
  </g>
  <rect x="73.5" y="65.0" width="64.0" height="6.0" rx="1" fill="#F8F9FB"/>
  <text x="105.5" y="70.0" font-size="4" fill="#1E293B" font-weight="500" text-anchor="middle">swap / deposit / withdraw</text>
  <rect x="165.8" y="65.0" width="61.6" height="6.0" rx="1" fill="#F8F9FB"/>
  <text x="196.6" y="70.0" font-size="4" fill="#1E293B" font-weight="500" text-anchor="middle">create / pause / resolve</text>
  <rect x="218.6" y="57.0" width="35.2" height="6.0" rx="1" fill="#F8F9FB"/>
  <text x="236.2" y="62.0" font-size="4" fill="#1E293B" font-weight="500" text-anchor="middle">fees / rescue</text>
  <rect x="143.5" y="125.0" width="37.6" height="6.0" rx="1" fill="#F8F9FB"/>
  <text x="162.3" y="130.0" font-size="4" fill="#1E293B" font-weight="500" text-anchor="middle">deploy &amp; admin</text>
  <rect x="183.7" y="130.0" width="37.6" height="6.0" rx="1" fill="#F8F9FB"/>
  <text x="202.5" y="135.0" font-size="4" fill="#1E293B" font-weight="500" text-anchor="middle">mint / burn LP</text>
  <rect x="76.6" y="130.0" width="35.2" height="6.0" rx="1" fill="#F8F9FB"/>
  <text x="94.2" y="135.0" font-size="4" fill="#1E293B" font-weight="500" text-anchor="middle">protocol fees</text>
  <rect x="128.8" y="134.0" width="40.0" height="6.0" rx="1" fill="#F8F9FB"/>
  <text x="148.8" y="139.0" font-size="4" fill="#1E293B" font-weight="500" text-anchor="middle">transfer shares</text>
  <rect x="229.5" y="130.0" width="37.6" height="6.0" rx="1" fill="#F8F9FB"/>
  <text x="248.3" y="135.0" font-size="4" fill="#1E293B" font-weight="500" text-anchor="middle">register pools</text>
</svg>