<svg xmlns="http://www.w3.org/2000/svg" width="954" height="490" viewBox="0 0 382 196" font-family="Arial, sans-serif">
  <defs>
    <marker id="ah" viewBox="0 0 8 6" refX="8" refY="3"
      markerWidth="4" markerHeight="3" orient="auto">
      <path d="M0.5,0.5 L7,3 L0.5,5.5" fill="none" stroke="#94A3B8"
        stroke-width="1.2" stroke-linejoin="round" stroke-linecap="round"/>
    </marker>
    <filter id="shadow" x="-6%" y="-8%" width="112%" height="128%">
      <feDropShadow dx="0" dy="0.5" stdDeviation="0.8"
        flood-color="#000" flood-opacity="0.05"/>
    </filter>
  </defs>
  <rect width="382" height="196" fill="#F8F9FB" rx="3"/>
  <text x="191" y="11" text-anchor="middle" font-size="6" font-weight="700" fill="#1E293B">PredictSwap v3 Architecture</text>
  <rect x="116" y="16" width="150" height="10" rx="3" fill="#fff" stroke="#E2E5EA" stroke-width="0.4"/>
  <rect x="121" y="18.5" width="5" height="5" rx="2.5" fill="#fff" stroke="#E2E5EA" stroke-width="0.4"/>
  <text x="129" y="22.5" font-size="3.5" fill="#1E293B">Actor</text>
  <rect x="161" y="18.5" width="5" height="5" rx="1.5" fill="#fff" stroke="#E2E5EA" stroke-width="0.4"/>
  <rect x="162" y="19.5" width="0.8" height="3" rx="0.4" fill="#3B82F6"/>
  <text x="169" y="22.5" font-size="3.5" fill="#1E293B">Protocol</text>
  <rect x="209" y="18.5" width="5" height="5" rx="1.5" fill="#fff" stroke="#E2E5EA" stroke-width="0.4"/>
  <rect x="210" y="19.5" width="0.8" height="3" rx="0.4" fill="#F59E0B"/>
  <text x="217" y="22.5" font-size="3.5" fill="#1E293B">External</text>
  <rect x="20.0" y="84.0" width="342.0" height="102.0" rx="5" fill="#EDEEF2"/>
  <text x="359.0" y="89.0" text-anchor="end" font-size="3.5" fill="#94A3B8" font-weight="500">PredictSwap v3</text>
  <rect x="20.0" y="146.0" width="342.0" height="40.0" rx="5" fill="#EDEEF2"/>
  <text x="359.0" y="151.0" text-anchor="end" font-size="3.5" fill="#94A3B8" font-weight="500">External</text>
  <rect x="20.0" y="22.0" width="342.0" height="34.0" rx="5" fill="#EDEEF2"/>
  <text x="359.0" y="27.0" text-anchor="end" font-size="3.5" fill="#94A3B8" font-weight="500">Actors</text>
  <path d="M93.1,46.0 C93.1,70.0 166.0,70.0 166.0,94.0" fill="none" stroke="#94A3B8" stroke-width="0.5" marker-end="url(#ah)"/>
  <path d="M180.1,46.0 C180.1,70.0 166.0,70.0 166.0,94.0" fill="none" stroke="#94A3B8" stroke-width="0.5" marker-end="url(#ah)"/>
  <path d="M93.1,46.0 C93.1,70.0 68.8,70.0 68.8,94.0" fill="none" stroke="#94A3B8" stroke-width="0.5" marker-end="url(#ah)"/>
  <path d="M268.9,46.0 C268.9,70.0 254.4,70.0 254.4,94.0" fill="none" stroke="#94A3B8" stroke-width="0.5" marker-end="url(#ah)"/>
  <path d="M202.4,112.0 C209.0,130.0 217.8,130.0 224.4,114.0" fill="none" stroke="#94A3B8" stroke-width="0.5" marker-end="url(#ah)"/>
  <path d="M166.0,114.0 C166.0,135.0 201.0,135.0 201.0,156.0" fill="none" stroke="#94A3B8" stroke-width="0.5" marker-end="url(#ah)"/>
  <path d="M254.4,114.0 C254.4,135.0 201.0,135.0 201.0,156.0" fill="none" stroke="#94A3B8" stroke-width="0.5" marker-end="url(#ah)"/>
  <path d="M224.4,112.0 C189.4,130.0 142.6,130.0 107.6,114.0" fill="none" stroke="#94A3B8" stroke-width="0.5" marker-end="url(#ah)"/>
  <path d="M254.4,114.0 C254.4,135.0 306.0,135.0 306.0,156.0" fill="none" stroke="#94A3B8" stroke-width="0.5" marker-end="url(#ah)"/>
  <g filter="url(#shadow)">
    <rect x="59.7" y="32.0" width="66.8" height="14" rx="7" fill="#fff" stroke="#E2E5EA" stroke-width="0.5"/>
    <text x="93.1" y="40.8" text-anchor="middle" font-size="4.8" font-weight="600" fill="#1E293B">Owner</text>
  </g>
  <g filter="url(#shadow)">
    <rect x="148.5" y="32.0" width="63.2" height="14" rx="7" fill="#fff" stroke="#E2E5EA" stroke-width="0.5"/>
    <text x="180.1" y="40.8" text-anchor="middle" font-size="4.8" font-weight="600" fill="#1E293B">Operator</text>
  </g>
  <g filter="url(#shadow)">
    <rect x="233.7" y="32.0" width="70.4" height="14" rx="7" fill="#fff" stroke="#E2E5EA" stroke-width="0.5"/>
    <text x="268.9" y="40.8" text-anchor="middle" font-size="4.8" font-weight="600" fill="#1E293B">User / LP</text>
  </g>
  <g filter="url(#shadow)">
    <rect x="129.6" y="94.0" width="72.8" height="20" rx="3" fill="#fff" stroke="#E2E5EA" stroke-width="0.5"/>
    <rect x="132.6" y="97.0" width="1.4" height="14" rx="0.6" fill="#3B82F6"/>
    <text x="166.0" y="103.5" text-anchor="middle" font-size="4.8" font-weight="600" fill="#1E293B">PoolFactory</text>
    <text x="166.0" y="108.5" text-anchor="middle" font-size="3.5" fill="#64748B">Registry</text>
  </g>
  <g filter="url(#shadow)">
    <rect x="224.4" y="94.0" width="60.0" height="20" rx="3" fill="#fff" stroke="#E2E5EA" stroke-width="0.5"/>
    <rect x="227.4" y="97.0" width="1.4" height="14" rx="0.6" fill="#3B82F6"/>
    <text x="254.4" y="103.5" text-anchor="middle" font-size="4.8" font-weight="600" fill="#1E293B">SwapPool</text>
    <text x="254.4" y="108.5" text-anchor="middle" font-size="3.5" fill="#64748B">Core Pool</text>
  </g>
  <g filter="url(#shadow)">
    <rect x="30.0" y="94.0" width="77.6" height="20" rx="3" fill="#fff" stroke="#E2E5EA" stroke-width="0.5"/>
    <rect x="33.0" y="97.0" width="1.4" height="14" rx="0.6" fill="#3B82F6"/>
    <text x="68.8" y="103.5" text-anchor="middle" font-size="4.8" font-weight="600" fill="#1E293B">FeeCollector</text>
    <text x="68.8" y="108.5" text-anchor="middle" font-size="3.5" fill="#64748B">Fee Accumulator</text>
  </g>
  <g filter="url(#shadow)">
    <rect x="164.0" y="156.0" width="74.0" height="20" rx="3" fill="#fff" stroke="#E2E5EA" stroke-width="0.5"/>
    <rect x="167.0" y="159.0" width="1.4" height="14" rx="0.6" fill="#3B82F6"/>
    <text x="201.0" y="165.5" text-anchor="middle" font-size="4.8" font-weight="600" fill="#1E293B">LPToken</text>
    <text x="201.0" y="170.5" text-anchor="middle" font-size="3.5" fill="#64748B">A-side / B-side</text>
  </g>
  <g filter="url(#shadow)">
    <rect x="260.0" y="156.0" width="92.0" height="20" rx="3" fill="#fff" stroke="#E2E5EA" stroke-width="0.5"/>
    <rect x="263.0" y="159.0" width="1.4" height="14" rx="0.6" fill="#F59E0B"/>
    <text x="306.0" y="165.5" text-anchor="middle" font-size="4.8" font-weight="600" fill="#1E293B">Market ERC-1155</text>
    <text x="306.0" y="170.5" text-anchor="middle" font-size="3.5" fill="#64748B">Prediction Shares</text>
  </g>
  <rect x="114.4" y="65.0" width="30.4" height="6.0" rx="1" fill="#F8F9FB"/>
  <text x="129.6" y="70.0" font-size="4" fill="#1E293B" font-weight="500" text-anchor="middle">admin calls</text>
  <rect x="154.3" y="65.0" width="37.6" height="6.0" rx="1" fill="#F8F9FB"/>
  <text x="173.1" y="70.0" font-size="4" fill="#1E293B" font-weight="500" text-anchor="middle">create / pause</text>
  <rect x="63.4" y="65.0" width="35.2" height="6.0" rx="1" fill="#F8F9FB"/>
  <text x="81.0" y="70.0" font-size="4" fill="#1E293B" font-weight="500" text-anchor="middle">withdraw fees</text>
  <rect x="229.7" y="65.0" width="64.0" height="6.0" rx="1" fill="#F8F9FB"/>
  <text x="261.7" y="70.0" font-size="4" fill="#1E293B" font-weight="500" text-anchor="middle">deposit / swap / withdraw</text>
  <rect x="195.8" y="129.0" width="35.2" height="6.0" rx="1" fill="#EDEEF2"/>
  <text x="213.4" y="134.0" font-size="4" fill="#1E293B" font-weight="500" text-anchor="middle">deploy + gate</text>
  <rect x="159.1" y="128.0" width="32.8" height="6.0" rx="1" fill="#EDEEF2"/>
  <text x="175.5" y="133.0" font-size="4" fill="#1E293B" font-weight="500" text-anchor="middle">registerPool</text>
  <rect x="208.9" y="122.0" width="37.6" height="6.0" rx="1" fill="#EDEEF2"/>
  <text x="227.7" y="127.0" font-size="4" fill="#1E293B" font-weight="500" text-anchor="middle">mint / burn LP</text>
  <rect x="143.6" y="121.0" width="44.8" height="6.0" rx="1" fill="#EDEEF2"/>
  <text x="166.0" y="126.0" font-size="4" fill="#1E293B" font-weight="500" text-anchor="middle">push protocol fee</text>
  <rect x="256.6" y="130.0" width="47.2" height="6.0" rx="1" fill="#EDEEF2"/>
  <text x="280.2" y="135.0" font-size="4" fill="#1E293B" font-weight="500" text-anchor="middle">pull / push shares</text>
</svg>