<svg xmlns="http://www.w3.org/2000/svg" width="980" height="645" viewBox="0 0 392 258" font-family="Arial, sans-serif">
  <defs>
    <marker id="ah" viewBox="0 0 8 6" refX="8" refY="3"
      markerWidth="4" markerHeight="3" orient="auto">
      <path d="M0.5,0.5 L7,3 L0.5,5.5" fill="none" stroke="#94A3B8"
        stroke-width="1.2" stroke-linejoin="round" stroke-linecap="round"/>
    </marker>
    <filter id="shadow" x="-6%" y="-8%" width="112%" height="128%">
      <feDropShadow dx="0" dy="0.5" stdDeviation="0.8"
        flood-color="#000" flood-opacity="0.05"/>
    </filter>
  </defs>
  <rect width="392" height="258" fill="#F8F9FB" rx="3"/>
  <text x="196" y="11" text-anchor="middle" font-size="6" font-weight="700" fill="#1E293B">PredictSwap v3 Architecture</text>
  <rect x="121" y="16" width="150" height="10" rx="3" fill="#fff" stroke="#E2E5EA" stroke-width="0.4"/>
  <rect x="126" y="18.5" width="5" height="5" rx="2.5" fill="#fff" stroke="#E2E5EA" stroke-width="0.4"/>
  <text x="134" y="22.5" font-size="3.5" fill="#1E293B">Actor</text>
  <rect x="166" y="18.5" width="5" height="5" rx="1.5" fill="#fff" stroke="#E2E5EA" stroke-width="0.4"/>
  <rect x="167" y="19.5" width="0.8" height="3" rx="0.4" fill="#3B82F6"/>
  <text x="174" y="22.5" font-size="3.5" fill="#1E293B">Protocol</text>
  <rect x="214" y="18.5" width="5" height="5" rx="1.5" fill="#fff" stroke="#E2E5EA" stroke-width="0.4"/>
  <rect x="215" y="19.5" width="0.8" height="3" rx="0.4" fill="#F59E0B"/>
  <text x="222" y="22.5" font-size="3.5" fill="#1E293B">External</text>
  <rect x="20.0" y="84.0" width="352.3" height="102.0" rx="5" fill="#EDEEF2"/>
  <text x="369.3" y="89.0" text-anchor="end" font-size="3.5" fill="#94A3B8" font-weight="500">PredictSwap v3</text>
  <rect x="20.0" y="208.0" width="352.3" height="40.0" rx="5" fill="#EDEEF2"/>
  <text x="369.3" y="213.0" text-anchor="end" font-size="3.5" fill="#94A3B8" font-weight="500">External</text>
  <rect x="20.0" y="22.0" width="352.3" height="34.0" rx="5" fill="#EDEEF2"/>
  <text x="369.3" y="27.0" text-anchor="end" font-size="3.5" fill="#94A3B8" font-weight="500">Actors</text>
  <path d="M65.2,46.0 C65.2,70.0 101.0,70.0 101.0,94.0" fill="none" stroke="#94A3B8" stroke-width="0.5" marker-end="url(#ah)"/>
  <path d="M101.0,94.0 C101.0,125.0 136.7,125.0 136.7,156.0" fill="none" stroke="#94A3B8" stroke-width="0.5" marker-end="url(#ah)"/>
  <path d="M161.2,46.0 C161.2,70.0 179.4,70.0 179.4,94.0" fill="none" stroke="#94A3B8" stroke-width="0.5" marker-end="url(#ah)"/>
  <path d="M248.2,46.0 C248.2,70.0 179.4,70.0 179.4,94.0" fill="none" stroke="#94A3B8" stroke-width="0.5" marker-end="url(#ah)"/>
  <path d="M248.2,46.0 C248.2,70.0 285.9,70.0 285.9,94.0" fill="none" stroke="#94A3B8" stroke-width="0.5" marker-end="url(#ah)"/>
  <path d="M285.9,94.0 C285.9,125.0 323.5,125.0 323.5,156.0" fill="none" stroke="#94A3B8" stroke-width="0.5" marker-end="url(#ah)"/>
  <path d="M179.4,114.0 C179.4,135.0 136.7,135.0 136.7,156.0" fill="none" stroke="#94A3B8" stroke-width="0.5" marker-end="url(#ah)"/>
  <path d="M179.4,114.0 C179.4,135.0 225.7,135.0 225.7,156.0" fill="none" stroke="#94A3B8" stroke-width="0.5" marker-end="url(#ah)"/>
  <path d="M166.7,174.0 C173.3,196.0 182.1,196.0 188.7,176.0" fill="none" stroke="#94A3B8" stroke-width="0.5" marker-end="url(#ah)"/>
  <path d="M166.7,174.0 C202.1,188.0 249.3,188.0 284.7,176.0" fill="none" stroke="#94A3B8" stroke-width="0.5" marker-end="url(#ah)"/>
  <path d="M136.7,176.0 C136.7,197.0 202.3,197.0 202.3,218.0" fill="none" stroke="#94A3B8" stroke-width="0.5" marker-end="url(#ah)"/>
  <path d="M323.5,176.0 C323.5,197.0 202.3,197.0 202.3,218.0" fill="none" stroke="#94A3B8" stroke-width="0.5" marker-end="url(#ah)"/>
  <g filter="url(#shadow)">
    <rect x="30.0" y="32.0" width="70.4" height="14" rx="7" fill="#fff" stroke="#E2E5EA" stroke-width="0.5"/>
    <text x="65.2" y="40.8" text-anchor="middle" font-size="4.8" font-weight="600" fill="#1E293B">User / LP</text>
  </g>
  <g filter="url(#shadow)">
    <rect x="129.6" y="32.0" width="63.2" height="14" rx="7" fill="#fff" stroke="#E2E5EA" stroke-width="0.5"/>
    <text x="161.2" y="40.8" text-anchor="middle" font-size="4.8" font-weight="600" fill="#1E293B">Operator</text>
  </g>
  <g filter="url(#shadow)">
    <rect x="214.8" y="32.0" width="66.8" height="14" rx="7" fill="#fff" stroke="#E2E5EA" stroke-width="0.5"/>
    <text x="248.2" y="40.8" text-anchor="middle" font-size="4.8" font-weight="600" fill="#1E293B">Owner</text>
  </g>
  <g filter="url(#shadow)">
    <rect x="135.2" y="94.0" width="88.4" height="20" rx="3" fill="#fff" stroke="#E2E5EA" stroke-width="0.5"/>
    <rect x="138.2" y="97.0" width="1.4" height="14" rx="0.6" fill="#3B82F6"/>
    <text x="179.4" y="103.5" text-anchor="middle" font-size="4.8" font-weight="600" fill="#1E293B">PoolFactory</text>
    <text x="179.4" y="108.5" text-anchor="middle" font-size="3.5" fill="#64748B">Registry + Deployer</text>
  </g>
  <g filter="url(#shadow)">
    <rect x="106.7" y="156.0" width="60.0" height="20" rx="3" fill="#fff" stroke="#E2E5EA" stroke-width="0.5"/>
    <rect x="109.7" y="159.0" width="1.4" height="14" rx="0.6" fill="#3B82F6"/>
    <text x="136.7" y="165.5" text-anchor="middle" font-size="4.8" font-weight="600" fill="#1E293B">SwapPool</text>
    <text x="136.7" y="170.5" text-anchor="middle" font-size="3.5" fill="#64748B">Core Pool</text>
  </g>
  <g filter="url(#shadow)">
    <rect x="188.7" y="156.0" width="74.0" height="20" rx="3" fill="#fff" stroke="#E2E5EA" stroke-width="0.5"/>
    <rect x="191.7" y="159.0" width="1.4" height="14" rx="0.6" fill="#3B82F6"/>
    <text x="225.7" y="165.5" text-anchor="middle" font-size="4.8" font-weight="600" fill="#1E293B">LPToken</text>
    <text x="225.7" y="170.5" text-anchor="middle" font-size="3.5" fill="#64748B">A-side / B-side</text>
  </g>
  <g filter="url(#shadow)">
    <rect x="284.7" y="156.0" width="77.6" height="20" rx="3" fill="#fff" stroke="#E2E5EA" stroke-width="0.5"/>
    <rect x="287.7" y="159.0" width="1.4" height="14" rx="0.6" fill="#3B82F6"/>
    <text x="323.5" y="165.5" text-anchor="middle" font-size="4.8" font-weight="600" fill="#1E293B">FeeCollector</text>
    <text x="323.5" y="170.5" text-anchor="middle" font-size="3.5" fill="#64748B">Fee Accumulator</text>
  </g>
  <g filter="url(#shadow)">
    <rect x="156.3" y="218.0" width="92.0" height="20" rx="3" fill="#fff" stroke="#E2E5EA" stroke-width="0.5"/>
    <rect x="159.3" y="221.0" width="1.4" height="14" rx="0.6" fill="#F59E0B"/>
    <text x="202.3" y="227.5" text-anchor="middle" font-size="4.8" font-weight="600" fill="#1E293B">Market ERC-1155</text>
    <text x="202.3" y="232.5" text-anchor="middle" font-size="3.5" fill="#64748B">Polymarket / Opinion</text>
  </g>
  <rect x="86.8" y="120.0" width="64.0" height="6.0" rx="1" fill="#EDEEF2"/>
  <text x="118.8" y="125.0" font-size="4" fill="#1E293B" font-weight="500" text-anchor="middle">deposit / swap / withdraw</text>
  <rect x="139.5" y="65.0" width="61.6" height="6.0" rx="1" fill="#F8F9FB"/>
  <text x="170.3" y="70.0" font-size="4" fill="#1E293B" font-weight="500" text-anchor="middle">create / pause / resolve</text>
  <rect x="192.6" y="57.0" width="42.4" height="6.0" rx="1" fill="#F8F9FB"/>
  <text x="213.8" y="62.0" font-size="4" fill="#1E293B" font-weight="500" text-anchor="middle">setFees / rescue</text>
  <rect x="287.1" y="120.0" width="35.2" height="6.0" rx="1" fill="#EDEEF2"/>
  <text x="304.7" y="125.0" font-size="4" fill="#1E293B" font-weight="500" text-anchor="middle">withdraw fees</text>
  <rect x="134.5" y="130.0" width="47.2" height="6.0" rx="1" fill="#EDEEF2"/>
  <text x="158.1" y="135.0" font-size="4" fill="#1E293B" font-weight="500" text-anchor="middle">initialize / admin</text>
  <rect x="186.2" y="130.0" width="32.8" height="6.0" rx="1" fill="#EDEEF2"/>
  <text x="202.6" y="135.0" font-size="4" fill="#1E293B" font-weight="500" text-anchor="middle">registerPool</text>
  <rect x="158.9" y="195.0" width="37.6" height="6.0" rx="1" fill="#F8F9FB"/>
  <text x="177.7" y="200.0" font-size="4" fill="#1E293B" font-weight="500" text-anchor="middle">mint / burn LP</text>
  <rect x="203.3" y="187.0" width="44.8" height="6.0" rx="1" fill="#F8F9FB"/>
  <text x="225.7" y="192.0" font-size="4" fill="#1E293B" font-weight="500" text-anchor="middle">push protocol fee</text>
  <rect x="145.9" y="188.0" width="47.2" height="6.0" rx="1" fill="#F8F9FB"/>
  <text x="169.5" y="193.0" font-size="4" fill="#1E293B" font-weight="500" text-anchor="middle">pull / push shares</text>
  <rect x="236.9" y="196.0" width="52.0" height="6.0" rx="1" fill="#F8F9FB"/>
  <text x="262.9" y="201.0" font-size="4" fill="#1E293B" font-weight="500" text-anchor="middle">transfer on withdraw</text>
</svg>