<svg xmlns="http://www.w3.org/2000/svg" width="1524" height="490" viewBox="0 0 610 196" font-family="Arial, sans-serif">
  <defs>
    <marker id="ah" viewBox="0 0 8 6" refX="8" refY="3"
      markerWidth="4" markerHeight="3" orient="auto">
      <path d="M0.5,0.5 L7,3 L0.5,5.5" fill="none" stroke="#94A3B8"
        stroke-width="1.2" stroke-linejoin="round" stroke-linecap="round"/>
    </marker>
    <filter id="shadow" x="-6%" y="-8%" width="112%" height="128%">
      <feDropShadow dx="0" dy="0.5" stdDeviation="0.8"
        flood-color="#000" flood-opacity="0.05"/>
    </filter>
  </defs>
  <rect width="610" height="196" fill="#F8F9FB" rx="3"/>
  <text x="305" y="11" text-anchor="middle" font-size="6" font-weight="700" fill="#1E293B">PredictSwap Architecture</text>
  <rect x="230" y="16" width="150" height="10" rx="3" fill="#fff" stroke="#E2E5EA" stroke-width="0.4"/>
  <rect x="235" y="18.5" width="5" height="5" rx="2.5" fill="#fff" stroke="#E2E5EA" stroke-width="0.4"/>
  <text x="243" y="22.5" font-size="3.5" fill="#1E293B">Actor</text>
  <rect x="275" y="18.5" width="5" height="5" rx="1.5" fill="#fff" stroke="#E2E5EA" stroke-width="0.4"/>
  <rect x="276" y="19.5" width="0.8" height="3" rx="0.4" fill="#3B82F6"/>
  <text x="283" y="22.5" font-size="3.5" fill="#1E293B">Protocol</text>
  <rect x="323" y="18.5" width="5" height="5" rx="1.5" fill="#fff" stroke="#E2E5EA" stroke-width="0.4"/>
  <rect x="324" y="19.5" width="0.8" height="3" rx="0.4" fill="#F59E0B"/>
  <text x="331" y="22.5" font-size="3.5" fill="#1E293B">External</text>
  <path d="M68.8,46.0 C68.8,70.0 90.2,70.0 90.2,94.0" fill="none" stroke="#94A3B8" stroke-width="0.5" marker-end="url(#ah)"/>
  <path d="M157.6,46.0 C157.6,70.0 90.2,70.0 90.2,94.0" fill="none" stroke="#94A3B8" stroke-width="0.5" marker-end="url(#ah)"/>
  <path d="M247.1,46.0 C247.1,70.0 283.0,70.0 283.0,94.0" fill="none" stroke="#94A3B8" stroke-width="0.5" marker-end="url(#ah)"/>
  <path d="M126.6,112.0 C164.5,126.0 215.1,126.0 253.0,114.0" fill="none" stroke="#94A3B8" stroke-width="0.5" marker-end="url(#ah)"/>
  <path d="M283.0,114.0 C283.0,135.0 204.4,135.0 204.4,156.0" fill="none" stroke="#94A3B8" stroke-width="0.5" marker-end="url(#ah)"/>
  <path d="M283.0,114.0 C283.0,135.0 293.2,135.0 293.2,156.0" fill="none" stroke="#94A3B8" stroke-width="0.5" marker-end="url(#ah)"/>
  <path d="M283.0,114.0 C283.0,135.0 387.4,135.0 387.4,156.0" fill="none" stroke="#94A3B8" stroke-width="0.5" marker-end="url(#ah)"/>
  <path d="M283.0,114.0 C283.0,135.0 514.0,135.0 514.0,156.0" fill="none" stroke="#94A3B8" stroke-width="0.5" marker-end="url(#ah)"/>
  <g filter="url(#shadow)">
    <rect x="30.0" y="32.0" width="77.6" height="14" rx="7" fill="#fff" stroke="#E2E5EA" stroke-width="0.5"/>
    <text x="68.8" y="40.8" text-anchor="middle" font-size="4.8" font-weight="600" fill="#1E293B">Operator</text>
  </g>
  <g filter="url(#shadow)">
    <rect x="129.6" y="32.0" width="56.0" height="14" rx="7" fill="#fff" stroke="#E2E5EA" stroke-width="0.5"/>
    <text x="157.6" y="40.8" text-anchor="middle" font-size="4.8" font-weight="600" fill="#1E293B">Owner</text>
  </g>
  <g filter="url(#shadow)">
    <rect x="217.3" y="32.0" width="59.6" height="14" rx="7" fill="#fff" stroke="#E2E5EA" stroke-width="0.5"/>
    <text x="247.1" y="40.8" text-anchor="middle" font-size="4.8" font-weight="600" fill="#1E293B">User</text>
  </g>
  <g filter="url(#shadow)">
    <rect x="53.8" y="94.0" width="72.8" height="20" rx="3" fill="#fff" stroke="#E2E5EA" stroke-width="0.5"/>
    <rect x="56.8" y="97.0" width="1.4" height="14" rx="0.6" fill="#3B82F6"/>
    <text x="90.2" y="103.5" text-anchor="middle" font-size="4.8" font-weight="600" fill="#1E293B">PoolFactory</text>
    <text x="90.2" y="108.5" text-anchor="middle" font-size="3.5" fill="#64748B">Registry</text>
  </g>
  <g filter="url(#shadow)">
    <rect x="253.0" y="94.0" width="60.0" height="20" rx="3" fill="#fff" stroke="#E2E5EA" stroke-width="0.5"/>
    <rect x="256.0" y="97.0" width="1.4" height="14" rx="0.6" fill="#3B82F6"/>
    <text x="283.0" y="103.5" text-anchor="middle" font-size="4.8" font-weight="600" fill="#1E293B">SwapPool</text>
    <text x="283.0" y="108.5" text-anchor="middle" font-size="3.5" fill="#64748B">1:1 AMM</text>
  </g>
  <g filter="url(#shadow)">
    <rect x="171.0" y="156.0" width="66.8" height="20" rx="3" fill="#fff" stroke="#E2E5EA" stroke-width="0.5"/>
    <rect x="174.0" y="159.0" width="1.4" height="14" rx="0.6" fill="#3B82F6"/>
    <text x="204.4" y="165.5" text-anchor="middle" font-size="4.8" font-weight="600" fill="#1E293B">LPToken A</text>
    <text x="204.4" y="170.5" text-anchor="middle" font-size="3.5" fill="#64748B">Market A side</text>
  </g>
  <g filter="url(#shadow)">
    <rect x="259.8" y="156.0" width="66.8" height="20" rx="3" fill="#fff" stroke="#E2E5EA" stroke-width="0.5"/>
    <rect x="262.8" y="159.0" width="1.4" height="14" rx="0.6" fill="#3B82F6"/>
    <text x="293.2" y="165.5" text-anchor="middle" font-size="4.8" font-weight="600" fill="#1E293B">LPToken B</text>
    <text x="293.2" y="170.5" text-anchor="middle" font-size="3.5" fill="#64748B">Market B side</text>
  </g>
  <g filter="url(#shadow)">
    <rect x="348.6" y="156.0" width="77.6" height="20" rx="3" fill="#fff" stroke="#E2E5EA" stroke-width="0.5"/>
    <rect x="351.6" y="159.0" width="1.4" height="14" rx="0.6" fill="#3B82F6"/>
    <text x="387.4" y="165.5" text-anchor="middle" font-size="4.8" font-weight="600" fill="#1E293B">FeeCollector</text>
    <text x="387.4" y="170.5" text-anchor="middle" font-size="3.5" fill="#64748B">Fee sink</text>
  </g>
  <g filter="url(#shadow)">
    <rect x="448.2" y="156.0" width="131.6" height="20" rx="3" fill="#fff" stroke="#E2E5EA" stroke-width="0.5"/>
    <rect x="451.2" y="159.0" width="1.4" height="14" rx="0.6" fill="#F59E0B"/>
    <text x="514.0" y="165.5" text-anchor="middle" font-size="4.8" font-weight="600" fill="#1E293B">Markets</text>
    <text x="514.0" y="170.5" text-anchor="middle" font-size="3.5" fill="#64748B">ERC-1155 (Polymarket / Opinion)</text>
  </g>
  <rect x="59.5" y="65.0" width="40.0" height="6.0" rx="1" fill="#F8F9FB"/>
  <text x="79.5" y="70.0" font-size="4" fill="#1E293B" font-weight="500" text-anchor="middle">pause / resolve</text>
  <rect x="102.7" y="65.0" width="42.4" height="6.0" rx="1" fill="#F8F9FB"/>
  <text x="123.9" y="70.0" font-size="4" fill="#1E293B" font-weight="500" text-anchor="middle">approve / config</text>
  <rect x="246.3" y="65.0" width="37.6" height="6.0" rx="1" fill="#F8F9FB"/>
  <text x="265.1" y="70.0" font-size="4" fill="#1E293B" font-weight="500" text-anchor="middle">deposit / swap</text>
  <rect x="171.0" y="125.0" width="37.6" height="6.0" rx="1" fill="#F8F9FB"/>
  <text x="189.8" y="130.0" font-size="4" fill="#1E293B" font-weight="500" text-anchor="middle">deploy / admin</text>
  <rect x="228.5" y="130.0" width="30.4" height="6.0" rx="1" fill="#F8F9FB"/>
  <text x="243.7" y="135.0" font-size="4" fill="#1E293B" font-weight="500" text-anchor="middle">mint / burn</text>
  <rect x="272.9" y="130.0" width="30.4" height="6.0" rx="1" fill="#F8F9FB"/>
  <text x="288.1" y="135.0" font-size="4" fill="#1E293B" font-weight="500" text-anchor="middle">mint / burn</text>
  <rect x="322.4" y="130.0" width="25.6" height="6.0" rx="1" fill="#F8F9FB"/>
  <text x="335.2" y="135.0" font-size="4" fill="#1E293B" font-weight="500" text-anchor="middle">recordFee</text>
  <rect x="378.5" y="130.0" width="40.0" height="6.0" rx="1" fill="#F8F9FB"/>
  <text x="398.5" y="135.0" font-size="4" fill="#1E293B" font-weight="500" text-anchor="middle">transfer shares</text>
</svg>